<svg width="544" height="544" viewBox="0 0 544 544" fill="none" xmlns="http://www.w3.org/2000/svg">
<rect width="544" height="544" rx="36" fill="black"/>
<mask id="mask0_15_32" style="mask-type:alpha" maskUnits="userSpaceOnUse" x="27" y="26" width="491" height="492">
<path d="M272.333 410.667C348.92 410.667 411 348.587 411 272C411 195.413 348.92 133.333 272.333 133.333C195.747 133.333 133.667 195.413 133.667 272C133.667 348.587 195.747 410.667 272.333 410.667Z" fill="white" stroke="white" stroke-width="4" stroke-linejoin="round"/>
<path d="M272.333 80C279.406 80 286.189 77.1905 291.19 72.1895C296.191 67.1885 299 60.4058 299 53.3333C299 46.2609 296.191 39.4781 291.19 34.4771C286.189 29.4762 279.406 26.6667 272.333 26.6667C265.261 26.6667 258.478 29.4762 253.477 34.4771C248.476 39.4781 245.667 46.2609 245.667 53.3333C245.667 60.4058 248.476 67.1885 253.477 72.1895C258.478 77.1905 265.261 80 272.333 80V80ZM427 144C434.072 144 440.855 141.19 445.856 136.189C450.857 131.189 453.667 124.406 453.667 117.333C453.667 110.261 450.857 103.478 445.856 98.4771C440.855 93.4762 434.072 90.6667 427 90.6667C419.928 90.6667 413.145 93.4762 408.144 98.4771C403.143 103.478 400.333 110.261 400.333 117.333C400.333 124.406 403.143 131.189 408.144 136.189C413.145 141.19 419.928 144 427 144ZM491 298.667C498.072 298.667 504.855 295.857 509.856 290.856C514.857 285.855 517.667 279.072 517.667 272C517.667 264.928 514.857 258.145 509.856 253.144C504.855 248.143 498.072 245.333 491 245.333C483.928 245.333 477.145 248.143 472.144 253.144C467.143 258.145 464.333 264.928 464.333 272C464.333 279.072 467.143 285.855 472.144 290.856C477.145 295.857 483.928 298.667 491 298.667V298.667ZM427 453.333C434.072 453.333 440.855 450.524 445.856 445.523C450.857 440.522 453.667 433.739 453.667 426.667C453.667 419.594 450.857 412.811 445.856 407.81C440.855 402.809 434.072 400 427 400C419.928 400 413.145 402.809 408.144 407.81C403.143 412.811 400.333 419.594 400.333 426.667C400.333 433.739 403.143 440.522 408.144 445.523C413.145 450.524 419.928 453.333 427 453.333V453.333ZM272.333 517.333C279.406 517.333 286.189 514.524 291.19 509.523C296.191 504.522 299 497.739 299 490.667C299 483.594 296.191 476.811 291.19 471.81C286.189 466.809 279.406 464 272.333 464C265.261 464 258.478 466.809 253.477 471.81C248.476 476.811 245.667 483.594 245.667 490.667C245.667 497.739 248.476 504.522 253.477 509.523C258.478 514.524 265.261 517.333 272.333 517.333V517.333ZM117.667 453.333C124.739 453.333 131.522 450.524 136.523 445.523C141.524 440.522 144.333 433.739 144.333 426.667C144.333 419.594 141.524 412.811 136.523 407.81C131.522 402.809 124.739 400 117.667 400C110.594 400 103.811 402.809 98.8105 407.81C93.8096 412.811 91 419.594 91 426.667C91 433.739 93.8096 440.522 98.8105 445.523C103.811 450.524 110.594 453.333 117.667 453.333V453.333ZM53.6667 298.667C60.7392 298.667 67.5219 295.857 72.5229 290.856C77.5239 285.855 80.3334 279.072 80.3334 272C80.3334 264.928 77.5239 258.145 72.5229 253.144C67.5219 248.143 60.7392 245.333 53.6667 245.333C46.5943 245.333 39.8115 248.143 34.8105 253.144C29.8096 258.145 27 264.928 27 272C27 279.072 29.8096 285.855 34.8105 290.856C39.8115 295.857 46.5943 298.667 53.6667 298.667V298.667ZM117.667 144C124.739 144 131.522 141.19 136.523 136.189C141.524 131.189 144.333 124.406 144.333 117.333C144.333 110.261 141.524 103.478 136.523 98.4771C131.522 93.4762 124.739 90.6667 117.667 90.6667C110.594 90.6667 103.811 93.4762 98.8105 98.4771C93.8096 103.478 91 110.261 91 117.333C91 124.406 93.8096 131.189 98.8105 136.189C103.811 141.19 110.594 144 117.667 144V144Z" fill="white"/>
</mask>
<g mask="url(#mask0_15_32)">
<mask id="mask1_15_32" style="mask-type:alpha" maskUnits="userSpaceOnUse" x="16" y="16" width="512" height="512">
<path fill-rule="evenodd" clip-rule="evenodd" d="M16 16H528V528H16V16ZM282.164 335.197C278.854 335.726 275.459 336 272 336C240.056 336 213.577 312.596 208.777 282H126L131 229L149.5 202.5L229 282H228.967L282.164 335.197ZM315.033 262L261.836 208.803C265.146 208.274 268.541 208 272 208C303.944 208 330.422 231.404 335.223 262H437.5L395 342L315 262H315.033Z" fill="black"/>
</mask>
<g mask="url(#mask1_15_32)">
<circle cx="272.5" cy="272.5" r="160.5" fill="white"/>
</g>
</g>
</svg>
