<svg width="512" height="512" viewBox="0 0 512 512" fill="none" xmlns="http://www.w3.org/2000/svg">
<mask id="mask0_2_19" style="mask-type:alpha" maskUnits="userSpaceOnUse" x="11" y="10" width="491" height="492">
<path d="M256.333 394.667C332.92 394.667 395 332.587 395 256C395 179.413 332.92 117.333 256.333 117.333C179.747 117.333 117.667 179.413 117.667 256C117.667 332.587 179.747 394.667 256.333 394.667Z" fill="white" stroke="white" stroke-width="4" stroke-linejoin="round"/>
<path d="M256.333 64C263.406 64 270.189 61.1905 275.19 56.1895C280.191 51.1885 283 44.4058 283 37.3333C283 30.2609 280.191 23.4781 275.19 18.4771C270.189 13.4762 263.406 10.6667 256.333 10.6667C249.261 10.6667 242.478 13.4762 237.477 18.4771C232.476 23.4781 229.667 30.2609 229.667 37.3333C229.667 44.4058 232.476 51.1885 237.477 56.1895C242.478 61.1905 249.261 64 256.333 64V64ZM411 128C418.072 128 424.855 125.19 429.856 120.189C434.857 115.189 437.667 108.406 437.667 101.333C437.667 94.2609 434.857 87.4781 429.856 82.4771C424.855 77.4762 418.072 74.6667 411 74.6667C403.928 74.6667 397.145 77.4762 392.144 82.4771C387.143 87.4781 384.333 94.2609 384.333 101.333C384.333 108.406 387.143 115.189 392.144 120.189C397.145 125.19 403.928 128 411 128ZM475 282.667C482.072 282.667 488.855 279.857 493.856 274.856C498.857 269.855 501.667 263.072 501.667 256C501.667 248.928 498.857 242.145 493.856 237.144C488.855 232.143 482.072 229.333 475 229.333C467.928 229.333 461.145 232.143 456.144 237.144C451.143 242.145 448.333 248.928 448.333 256C448.333 263.072 451.143 269.855 456.144 274.856C461.145 279.857 467.928 282.667 475 282.667V282.667ZM411 437.333C418.072 437.333 424.855 434.524 429.856 429.523C434.857 424.522 437.667 417.739 437.667 410.667C437.667 403.594 434.857 396.811 429.856 391.81C424.855 386.809 418.072 384 411 384C403.928 384 397.145 386.809 392.144 391.81C387.143 396.811 384.333 403.594 384.333 410.667C384.333 417.739 387.143 424.522 392.144 429.523C397.145 434.524 403.928 437.333 411 437.333V437.333ZM256.333 501.333C263.406 501.333 270.189 498.524 275.19 493.523C280.191 488.522 283 481.739 283 474.667C283 467.594 280.191 460.811 275.19 455.81C270.189 450.809 263.406 448 256.333 448C249.261 448 242.478 450.809 237.477 455.81C232.476 460.811 229.667 467.594 229.667 474.667C229.667 481.739 232.476 488.522 237.477 493.523C242.478 498.524 249.261 501.333 256.333 501.333V501.333ZM101.667 437.333C108.739 437.333 115.522 434.524 120.523 429.523C125.524 424.522 128.333 417.739 128.333 410.667C128.333 403.594 125.524 396.811 120.523 391.81C115.522 386.809 108.739 384 101.667 384C94.5943 384 87.8115 386.809 82.8105 391.81C77.8096 396.811 75.0001 403.594 75.0001 410.667C75.0001 417.739 77.8096 424.522 82.8105 429.523C87.8115 434.524 94.5943 437.333 101.667 437.333V437.333ZM37.6667 282.667C44.7392 282.667 51.5219 279.857 56.5229 274.856C61.5239 269.855 64.3334 263.072 64.3334 256C64.3334 248.928 61.5239 242.145 56.5229 237.144C51.5219 232.143 44.7392 229.333 37.6667 229.333C30.5943 229.333 23.8115 232.143 18.8105 237.144C13.8096 242.145 11.0001 248.928 11.0001 256C11.0001 263.072 13.8096 269.855 18.8105 274.856C23.8115 279.857 30.5943 282.667 37.6667 282.667V282.667ZM101.667 128C108.739 128 115.522 125.19 120.523 120.189C125.524 115.189 128.333 108.406 128.333 101.333C128.333 94.2609 125.524 87.4781 120.523 82.4771C115.522 77.4762 108.739 74.6667 101.667 74.6667C94.5943 74.6667 87.8115 77.4762 82.8105 82.4771C77.8096 87.4781 75.0001 94.2609 75.0001 101.333C75.0001 108.406 77.8096 115.189 82.8105 120.189C87.8115 125.19 94.5943 128 101.667 128V128Z" fill="white"/>
</mask>
<g mask="url(#mask0_2_19)">
<path fill-rule="evenodd" clip-rule="evenodd" d="M0 0H512V512H0V0ZM266.164 319.197C262.854 319.726 259.459 320 256 320C224.056 320 197.577 296.596 192.777 266H110L115 213L133.5 186.5L213 266H212.967L266.164 319.197ZM299.033 246L245.836 192.803C249.146 192.274 252.541 192 256 192C287.944 192 314.423 215.404 319.223 246H421.5L379 326L299 246H299.033Z" fill="black"/>
</g>
</svg>
